<svg xmlns="http://www.w3.org/2000/svg" version="1.1" xmlns:xlink="http://www.w3.org/1999/xlink"
    xmlns:svgjs="http://svgjs.dev/svgjs" width="46" height="46"><svg width="46" height="46" viewBox="0 0 46 46"
        fill="none" xmlns="http://www.w3.org/2000/svg">
        <path
            d="M30.8578 23.7155L19.5548 34.8917C19.4001 35.0447 19.1583 35.0447 19.0036 34.8917L7.27516 23.2852C7.12046 23.1323 6.87874 23.1323 6.72403 23.2852L1.66716 28.2949C1.41577 28.534 1 28.3619 1 28.0177V9.57548C1 9.2313 1.41577 9.05921 1.66716 9.30778L19.0036 26.4498C19.1583 26.6027 19.4001 26.6027 19.5548 26.4498L22.8712 23.1705C22.9486 23.094 23.0453 23.0558 23.142 23.0558H30.5774C30.9255 23.0558 31.0995 23.4669 30.8481 23.7155H30.8578Z"
            class="color"></path>
        <path
            d="M7.03344 26.3734V36.4693C7.03344 36.6796 6.8594 36.8517 6.64668 36.8517H1.38676C1.17404 36.8517 1 36.6796 1 36.4693V31.5743C1 31.4691 1.03868 31.3735 1.11603 31.3066L6.37595 26.1057C6.61767 25.8667 7.04311 26.0388 7.04311 26.3734H7.03344Z"
            fill="#009AD7"></path>
        <path
            d="M44.6167 14.6139H38.0321C37.8194 14.6139 37.6453 14.786 37.6453 14.9964V36.4693C37.6453 36.6796 37.4713 36.8517 37.2586 36.8517H31.9987C31.7859 36.8517 31.6119 36.6796 31.6119 36.4693V15.0059C31.6119 14.7956 31.4379 14.6235 31.2251 14.6235H23.5673C23.461 14.6235 23.3643 14.6617 23.2966 14.7382L19.9898 18.0079C19.7481 18.2469 19.3226 18.0748 19.3226 17.7402V9.03061C19.3226 8.82028 19.4967 8.64819 19.7094 8.64819H39.3567C39.4631 8.64819 39.5598 8.68644 39.6275 8.76292L44.8874 13.9638C45.1291 14.2028 44.9551 14.6235 44.6167 14.6235V14.6139Z"
            fill="#009AD7"></path>
    </svg>
    <style>
        @media (prefers-color-scheme: light) {
            .color {
                fill: #2D2D2E;
            }
        }

        @media (prefers-color-scheme: dark) {
            .color {
                fill: #E1E1E3;
            }
        }
    </style>
</svg>